/* XPM */
static char *_8100bcf71f1481ba2fe1777f0c339ecU4AwfuhewYEeQKb3[] = {
/* columns rows colors chars-per-pixel */
"64 64 193 2 ",
"   c #060000",
".  c #0B0300",
"X  c #110700",
"o  c #140C04",
"O  c #190F05",
"+  c #17120A",
"@  c #1C130B",
"#  c #23190F",
"$  c #251B12",
"%  c #281E15",
"&  c #2D2017",
"*  c #2D241B",
"=  c #2C281F",
"-  c #31271D",
";  c #32281E",
":  c #2F2821",
">  c #342C24",
",  c #392F25",
"<  c #352E29",
"1  c #3A3127",
"2  c #3C332C",
"3  c #3F382E",
"4  c #3D3732",
"5  c #3F3932",
"6  c #403731",
"7  c #443B33",
"8  c #483E34",
"9  c #453E3B",
"0  c #4B4137",
"q  c #4C443B",
"w  c #45423D",
"e  c #50463D",
"r  c #53493F",
"t  c #4B4641",
"y  c #4E4944",
"u  c #554C43",
"i  c #584E45",
"p  c #554E49",
"a  c #5A5147",
"s  c #56514B",
"d  c #5C534B",
"f  c #5E5A4F",
"g  c #5C5651",
"h  c #5D5A54",
"j  c #61574D",
"k  c #62584E",
"l  c #645C53",
"z  c #685E55",
"x  c #645E59",
"c  c #676056",
"v  c #6A6157",
"b  c #66615A",
"n  c #6C635B",
"m  c #6D695D",
"M  c #71675D",
"N  c #72695F",
"B  c #6D6661",
"V  c #6D6A64",
"C  c #6E6C6A",
"Z  c #706760",
"A  c #746B62",
"S  c #796F65",
"D  c #746E69",
"F  c #786F68",
"G  c #767065",
"H  c #7A7166",
"J  c #76716B",
"K  c #7C736B",
"L  c #7E796C",
"P  c #767372",
"I  c #7C7671",
"U  c #7E7973",
"Y  c #81776D",
"T  c #82796E",
"R  c #847C73",
"E  c #887E75",
"W  c #847E7A",
"Q  c #887F7A",
"!  c #817775",
"~  c #7E8075",
"^  c #858077",
"/  c #8A8176",
"(  c #86817B",
")  c #8C837B",
"_  c #8F8A7E",
"`  c #908277",
"'  c #91867D",
"]  c #92897E",
"[  c #8C8681",
"{  c #8E8982",
"}  c #8D8C88",
"|  c #908780",
" . c #948B83",
".. c #988E85",
"X. c #948E89",
"o. c #988F89",
"O. c #919187",
"+. c #9A9186",
"@. c #96918A",
"#. c #9C938B",
"$. c #9C9A8F",
"%. c #9C9691",
"&. c #9F9A93",
"*. c #9E9D9B",
"=. c #949391",
"-. c #A1968C",
";. c #A3998F",
":. c #A09792",
">. c #A49B93",
",. c #A99E95",
"<. c #A49E99",
"1. c #A89F98",
"2. c #A2A196",
"3. c #AAA197",
"4. c #A6A19A",
"5. c #ACA39B",
"6. c #ACA99D",
"7. c #B1A69D",
"8. c #B2A99E",
"9. c #A7A6A4",
"0. c #ACA6A1",
"q. c #AEA9A3",
"w. c #ACABA9",
"e. c #B1A7A2",
"r. c #B4ACA3",
"t. c #B9AEA5",
"y. c #B4AEA9",
"u. c #B8AEAB",
"i. c #B5B1A6",
"p. c #BAB0A6",
"a. c #B6B1AB",
"s. c #BCB4AC",
"d. c #BDBBAF",
"f. c #BCB6B1",
"g. c #BEB9B3",
"h. c #B9B8B5",
"j. c #C1B6AD",
"k. c #C2B9AE",
"l. c #C1B7B2",
"z. c #C3BBB4",
"x. c #C9BFB5",
"c. c #C4BEB9",
"v. c #C8BFB9",
"b. c #C5C0B5",
"n. c #C9C1B6",
"m. c #C6C1BB",
"M. c #CBC3BC",
"N. c #CFC8BD",
"B. c #D1C6BD",
"V. c #D2C9BE",
"C. c #C7C5C3",
"Z. c #CDC6C1",
"A. c #CEC9C3",
"S. c #CECDCA",
"D. c #D0C7C2",
"F. c #D3CBC4",
"G. c #D4CEC9",
"H. c #D8CFC9",
"J. c #D5D0C6",
"K. c #D9D1C7",
"L. c #D5D1CB",
"P. c #DBD4CC",
"I. c #DDD8CD",
"U. c #D5D3D1",
"Y. c #DDD6D1",
"T. c #DED9D3",
"R. c #DDD9D8",
"E. c #E1D5CC",
"W. c #E2D9CE",
"Q. c #E0D7D0",
"!. c #E3DCD4",
"~. c #E3DDD9",
"^. c #E8DFD8",
"/. c #EADDD4",
"(. c #E7E0D5",
"). c #E8E0D5",
"_. c #E6E1DA",
"`. c #EBE3DC",
"'. c #EFE9DD",
"]. c #F0E8DD",
"[. c #EBE5E1",
"{. c #EFE9E2",
"}. c #EFEEEA",
"|. c #F0E7E2",
" X c #F3EBE4",
".X c #F3EDE9",
"XX c #F8EFE8",
"oX c #F7F1EA",
"OX c #FBF3ED",
"+X c #FFF9ED",
"@X c #FEF6F1",
"#X c #FFF9F3",
"$X c #FFFDFA",
/* pixels */
",.T T #.3.8.7.] T ` M ' -.3.E v +.Y A 7.| ,.7.d 7 r E ,.t.j.>.j.v.j.9.v.u.9 [ ! o.D.D.:.Q B u.l.v.G.G.u.I x I B x { <.0.r.s. .4 ",
"K v Y ;.8.k.t.' i M k T r ' j T v N i Y t.,.+.N E M >.j.;.j.j.7.l.l.:.u.[ o.e.e.l.D.v.:.! :.D.R.D.~.R.e.! %.z.>.l x X.r.c.m.r.I ",
"Y i k ..3.t.x.x.- ' -.T 8.' ;.E E E d d ..Y E  .>.E j.j.:.t.j.t.u.v.u.l.! u.u.D.c.c.Y.l.X.D.C.v./.D.l.G.u.:.u.u.! s o.%.r.q.y.<.",
"j e v ..7.j.n.k.,.0 S 3.7.,...7.+.Q T ,.j.Q  .Y  .7.j.e.j.7.:.j.5.e.l.u.:.[ u.D.U.H.H.e.%.l.u.v.Y.R.R.H.y.y.D.l.o.n z.y.s.q.z.Z.",
"j v T E ' t.M.,.x.-.r E x.,.7.7.-.E d +.7.;.#...,.x.j.5.j.,...:.l.v.D.l.u.g C g ! :.>.>.Z.u.>.e.o.1.v.Y.D.v.G.u.x V ~.F.A.z.Z.A.",
"..H T ` E ..8.p.' ;.-.# ] t.,.' :.t.Z #.j...S :.>.+.E Q E Q ..v :.1.! Z Q :.v.v.f.s.:.Q Z.v.v.F.! p g u.Y.H.D.1.B X.`.m.c.f.z.l.",
"' N / 7.;.] -.7.k.;.E +.0 Y x.8.7.,.8 u M i k ' 7.j.j.j.j.j.v.7.g | o.:.e.H.v.l.M.l.v.:.o.1.' ! l.:.D P %.D.H.o.1.H.Q.f.f.c.v.v.",
"N E ] E H +.t.;...7.3.E ` j a ;.3.k 6 z ,.-.,.A M x.j.j.x.t.j.x.Z o.v.e.e.l.1.v.l.r.].t.Z l.r.r.Y.H.D.l.o.F Q P 0.Y.l.5.g.F.C.v.",
"E ` z N Y ` j.] ' ] E 3.-.-.T 8 M & k o.r.+.,.,.z R t.B.,.z.j.>.Q ! e.D.0.6.M.l.l.D.M.e.B.^.Q f.{.Y.f.g.0.y.<.5 l 1.c.f.I #.f.r.",
"N z ] -...Y z ] ,.E Y B.B.j.3.` O 6 t.7.7.F.x.>.t.k z K.F.j.k.8.o.z ` D.p.E ' >.Q.j.>.!.W.K.l.' v.F.A.A.F.c.s.V + t 6 < l D x : ",
"x.-.M ] ,.E E 3.3.j.k.V.k.V.V.3.;.z z.D.x.B.t.x.B.z.z M -.B.x.#.j v | 1.;.-./ c ..j z. Xp.n.p.s.<.y.f.5.p.%.>.U q <.<.! v.f.5.{ ",
"x.M.z z Y Y 7.x.B.k.M.K.8.;.8.k.r.E 3.-...x.B.j.>...' ..F ..Y e o.5.l.v.J.E.n.8.M l 7.`.M.n.F.n.r.0.v.<.5.) >.! [ Q.A.[ r.y.q.1.",
",.,.-.Y ] 3.-.j.V.j.x.V.k.j.x.B.T r.F.t.E #.,.Y R +.j.k.k.E @ E v.E.x.t.j.F.V.V.+.l p./.n.k.d.n.l.5.~.Z.z.4.s.W D G.Y.z.q.f.q.o.",
",.j.3.3.t.,.+.-.] ,.V.8.7.B.K.j.S 7.j./.j.E +.t.x.r./.F.5.#.e k.E.|.E.z.x.E.K.B.j.1 6.V.s.N.k.`.c.p.[.F.x.f.c.%.{ H.H.Z.&.r.0.X.",
",.B.,.,.T j -.] E Y 8.3.-.] ] -.e.E.B.B.7.E Y ,.F.x.F.x.P.+.& n.|.x.x./.].B.k.J.n.E u ;.).V.+XM.s.H..XZ.M.G.m.M.! f.F.L.Z.0.x o ",
"8.,.] N Y -...Y ,.;.x.....7.;.v r.E.E.E.x.>.M j.B.F.F.B.K.5.7 5././.E.B.V.W.W.z.s.F.H z k.7.8.;.U H. Xm.L.T.y.T.! z.M.%.#.D ! Q ",
"` T j 3.3.8.] 3.;.] 8.n.] ] /.` ` 7.t.t.;.8.H d.M.T.F.L.#.K e { b.b.n.n.V.J.J.F.G.l.:.4 Q 1.o.C.5.W &.G.A.a.4.4.s U [ I { %.%.a.",
"/ ] _ 3._ ^ / ] ] k.B.] 7.] ` ` p.3.j.B.H L c / P.(.#.K #.) > r.V.N.'.V.N.I.s.s.4.v.Q I [.[.U.D.[.G.} U 4.#.q.f.*.b A.{.G.g.#.a.",
"^ 3.i.3.i.i.7./ ] 7.,.N ] ` T V.K.V.K.n.b #.s.r.T K  .d.T.6.+ v J.).I.'.`.I.~.K.5.B . Q G.D.R.|._._.oXZ.w g.T._.L.I ~.L.0.C.L.a.",
"Y 6.b.8.] ] k.8.;.Y ] 3.B.] ` x.p.n.K.p.* v m.M.l.s.G.`.T.P.R / ).V.s.V.'.'.`.A.r.9 1.x e.G.R.D.Y._.m.f.=.&.{.T.J.[ 2.Z.Z.0.Z.0.",
"a m _ b.K.8.i.N.3.T 8.E.V.,.8.s.z.P.A ( Z.N.{ J.n. XL.p.z.`.4.0 N.(.+XJ.B.`.V.z.9 r.`.r.P X.D.v.a..X[.a.s _.L.L.a.q.} &.L.i.&.#.",
"m ~ m _ 8.N.K.N.] 7.B.b.x.,.j.z.{ K R F.A.!.s.r.!.d.X.5.s.`.I.a / '.I.K.I.`.+X .Z .XF.Y.D.9 u.[._.( h R B J T.A.a.Y.s.J 0.L.&.q.",
"i.d._ m a ^ n.N.T $.E.n.x.;.T ' ,.#.6.F.n.|.6.#.M.J +.~.L.!.'.@.T 6.m +.N.G.D.y s.`.|.Q.D.f.x I C &.f.A.g.m. .f.A.L.Z.m.q.a.O.m.",
"I.d.d.3.i.` 6.] / r p.j.j.7.E 3.s.m.s.s.s.l.K L.s.M. X`.I.!.P.(.+.m n._ n H : K Q.[.`.Y..XD.G.< d.L._.Z.m.U.A.I f.R.b.Z.s b =.{ ",
"2.d.d.6.I.6.I.b.~ 3 J.b.k.B.) X.J.f.{.`.l.x.q.X.s.!.OX!.P.`.F.N.O.b.I.K.p.d.c b.`.I.`.P.XXF.l.B R.m.Y._.P.g.L.g.{ q.b U 0.r.m.I ",
"_ i.b.6.d.2.J.J.$.# ~ _ ,.) % v n.I.s.s.I.~.$.d (.oXF.].oXL.V.] K.).W.K.W.I.c N OX`.L.H.C.~.:.Q '.~._.{.q.C.b.{.a.A.( @.R.a.%.&.",
"i.6.b.d.S.d.w.2.m f $.2.J u m ^ 6.XXA.n.L.^.,.u ~.F.oX(.P.!.4.#.).).b.i.J.N.;.O.d g.@X{.Y.$XX.J @.L.A.0.a.m.oXA.b._.a.b 0.C.g.Z.",
"2._ 6.2.b.2.~ f ~ d.d.2. .X.z.$.H m.^.{.s.b.&.q L. X|.I.5.#.r.2.b.I.n.3.i. .V.'.M.R ! 1..Xy.Q U.6.I q.=.{.{.A._.L.a.m.[ &.g.L.T.",
"~ 2.6.~ 6.~ 5 ~ 6.d.N.~ O.N.a.(.R <.P.|.I.!.#.h 6.x.J.{.I.p.s.8.i.I.'.K.z.c N. XQ.Y.5.4 Q I q.D.L.f.J &.~._.S.Y.P.T._.L U Z.Y.b.",
"~ J.S.i.d.d.f 2.I.6.C.h.O.N.M.i.) ) X.) j.6.l U m u / 5.x.a.( s.i.d.I.).P.G J.^. X@Xf.{ [.[.~.c.~.Z.C.B 0.oXL.L.R.a.J C { ^ ( g.",
"i.J.J.U.U.S.~ ~ S.d.2.U.a.d.q.< s.s.q.X.p.H I M.z.c.I X.s.#.r.n.i.3.s.n.M./ I.J.F.H.u.X.D.Y.~.@X_.A.A.m q.0.~._.A.A.U a.U.P.h.a.",
"6.d.d._.S.S.~ y ~ 2.f f _ ( f q.T.I. X~.L.A r.~.Q.`.x.4.~.{.<.o.n.p.b.z.r.H c.r.F.D.Y.I l.[.Y.L.Y.G.m.w y #.q.m.L.q.s m.J.R.{.q.",
"e.5.c. XG.y.C } C.c.9.D s 2 r.M.D.|.U.Z.Y.b v.Q.G.R.G.! C._.F.y.b.8.>.Y F r.F.D.t.Q.M.A F.^.|. X[.g.C P O.P t =.%.C C A.m.}.i.C.",
"S ,.v.D.U.9.C h.R.h.[.~.Q u B.j.Y.R.^.H.G.:.<.~.G.D.G.y.X..XD.`.#.E >.`.Q.P./.Q.M.v.>.M 1.0.7.l.f.w @.T.g.S.g.a.U.*.w U.[.U.~._.",
"#.1.o.D [ J P w.U.S.S.Z.l.z ,.P.v.l.H.R.G.X.} OXOXH.Y.~.1.[ f.<.! x.G.|.W.H.D.e.) :.e.s.v.7.o.o.} a.L.S.&.4.}.9._.S.s h.a.4.U.L.",
"r.B.^.l.{ x C.U.c.}.D.Z.#X .z >.~.Y.:.P [ 4 %.F.R.OXH..XQ J %.K / ~.I.I.P.o.e.F.:.-.o.v.H.|.H.r.I _.C.a.m.{ g.h.b.=.y ( 9.h.4.O.",
"x.K.M.j.0.C S.9.C.U.R._.!.1.o.! Q l.%.e.P.@.y.s <.D..Xu.( Q.P.~.| f.W.!.F.Y t.v.r.7.>.H.x.Q. X^.U @.Z.&.&.4.q.L.I h B 4.A.m.} 2.",
"E F.D.r.f.x <.S.C.h.U.g.o.e.E.z.:.| Q G.^.`.Y.z.Q D [ Z s.!._.[.D.1./.XXj.| P.<.5.%.>.|.F.l.P.Y.f.} ~ g h @.2.K x 2.a.m.m.2.a.Z.",
"8 A -.>.U.=.P h.a.U.R.g.t.Z.B.F.^.F | D.s.F.c.XXD.1.< u.M.~.W.^.@X1.l.`.>.| l.l.v...K M.Q.H.!.x.^.^ + U a.2.$.= ( T.m.6.b.q.L.q.",
"! k s.<.*.[ h w.U h.v.w.M./.B.x.P.F e.D.H.~.Q.z.^.u.z <.#.z.P.`.D.P.e.! 6 F z n o.>.1.P.H.x.^.D.M.@.^ J.s.A.L.c K b.A.d.L.i.b.s.",
"7...I K p y.C.m.h.} w.A.y.l.z.K.l.. r.{.x.P.^.(.(.K . n u n 1.%.H S i ! l.z.B.f.s.M. .1.s.x.z.v.r.l.H 6.s.M.N.c G 2.>.) <.a.p.n.",
"t.j.o.5.>.=.S.U.S.*.U f.v.F.r. .B 1.q R ~.M.L.I.q.a 4.P.I.O.m m o 9 v.P.Q.P.E.s.H.s.>.D.M.v.s.5.#.:.) 6.s.b.N.3. .F.F.' b c / g.",
"E 5.8.p.g.B 9.S.w.h.[.I l x k Z j.M.r.2 3.J.F.!._ G ).b.J.b.z.P.F 2 z.H.H.H.Q.Q./.v.e.`.@Xl.n | ,.4.8.5.b.M.n.k.@.N.L.j.5.X.H B ",
"' ! 7.,.v.*.=.=.9.U.a.G.Z  .z.XXD.x.x.#.0 -.K.i.1 +.n.K.N.P.(.I.M.i ,.!.^.D.v./.v.F.l.5.1.1.E M.p.x.s.-.V.P.n.-.,.s.k.z.K.F.,.H ",
"....l.t.y.l.9.P U.C.}.0.A n.V.V.b.n.I.b.r.r _ a / K.b.'.x.x.B.B.^.! j r.Q.Q.z.v.r.u.c.K 2 7.H.4.p.z.#.] N.n.V.#.+.p.k.8.8.p.d.p.",
"' s.u.D.w.S.R.P *.}.S.c.6 5.K.K.K.n.N.N.N.^   q ;.n.K.I././.B.j.F.Q $ %.!.M.) R ! ,.j. .y  .j.t.p.6.E -.k.3.k.t.] ;.7.;.-.8.i.7.",
"#.r.X.r.l.R.U.C *.} y.%. .R ^ n.).K.n.b.'.L G 6.] 3.M.3.x.K.E.B.H.o.> Z ) F | v.x.-.6 z s.D.7.u.r.] ) 7.3.;.#.3.>.] E / -.8.3./ ",
"l | 1.} Q [ D P t %.y.#.L.D.+./ +.k._ +./ ; G b.x.j.x.E.x.j.j.x.t...i z | t.Y.P.M.v.! #.s.5.| ..-.H +.8.#.7.Y T T ] ,.7.,.-.E k ",
"Y s o.x { o.c.y.B A.A.y.Z.H.Z.Y.E E j.,.7.N Y ,.7.j.x.H.B.x.x.B.W.7.& -.x.M.V.t.x.8.S T j.x.7.+.N +.t.,.,.-.j e i j v ] j r - 8 ",
"o.+ t o.f.a.Y.c.I q.Z.z.c.v.P.P.7.7./.j.x.j.& E ,.j.B.B.B.B.x.B.F.B.1 N x.x.j.W.M.t.S S ,.j.j.;.k H ..,.3.E N z Y M 6 X X j ` N ",
"x X.o.<.z.f.c.H.Q K y.z.v.c.!.z.7.E.j.z.;.x.7.O 7.x.x.t.x.B.x.B.W.j.8 / 3.j.V.t.j.8.] ' -.7.j.,.d ' ;./ Y N ;.Y N N 6 ; Y -.t.;.",
"p Q 5.r.<.>.G.Z.%.m %.X.r.y.G.5.3.E.,.,.j.B.j.i Y 7.j.j.j.7.7.B.j.,.. Y 7.-.K.S M Y ' -.E ' j.8.N j E H e X N -.Y Y ; j j.] -.V.",
"p ! r.s.e.X.F.m.X.F %.I o.>.f.5.| s.z.j.x.z.u.z i E t.B.B.7.,.u.` # Y ] r ] ` -.;.;.j.B.,.;.x.z.E , e 6 i N ] v -.-.0 z E T +.j.",
"D #.y.0.z.! ) %.y x 0.#.5.<.0.f.>. .j.j.j.B.D.i Y Y Y E ,.;.! i r ..8.t.;.v i ' V.k.k.B.7.;.t.-.' o 6 S k.B.j.] N e 8 T M k z 6 ",
"K o 4 K g 9 q 4 > 6 <.f.f.s.y.m./. .>.e.].`.' f.x.-.Y ! -.x.,.e ] ;.8.x.B.j.E 8 ;.,.7.k.j.t.7.S ; j ;.,.] 8.V.j.E e r N S j z 0 ",
"! 6.m.:.x 0.r.4.x 4 ) y.5.f.f.F.v.v.Q F.x.,.F.r.j.t.j.;...j.u.z S ' t.7.;.j.j.E r E -.,.-.' k X k ] 3.3.] -.x.;.` Y i O j i z ` ",
"#.Z.I.c.y.y.y.D.l.l [  .V c.f.z.!.t.1.u.F -.F.z.5.1.y.r. .-.s.#.i 3.p.,.7.t.j.t.H z Y ..3.N ; k ..;.;...;.] E T 0 ' 0 k T M 8 8.",
"Y.5.s.G.%.>.P.c.0.! Z.y.<.Z b #.r.Q Q :.| o.v.1.v.M.l.f.:.o.) Q 8 -.t.8.7.7.7.;.;.Y z d M i 8 3.,.....j.E.3.Y Y r 8 E ;.j.-.- j ",
"r.f.c.m.f.x.Y.e.p #.v.L.[.f.g h Z Z.l.<.Q.{ ! A.>.u.e.#. .D D :.8.E M ..;.N Y 7.;.E S Y 3.] i ' ;.,.] -.3.` z v S j -.8.3.M j 7 ",
"X.Y.m.q.H.Y.G.{ q f.f.s.c.Y.r.f.=.1.:.<.l.o.) { ! x l t >.0.s.j.7...H ..7.,.7.t.3...T ' x.8.v ....7.;.-.,.] T ..r e T ;.,.N ' e ",
"f.z.y.<.f.l.f.D D y.F.r.D.z.Y.Z.S.f.w.v.&.9.G.C.~.c.y.[ %.h.f.0...3.7.t.7.8.j.7.T ` ..] 7...j ] ' ' ] 8.j.T j N ` 8 z z Y E j j ",
"x #.c.>.c.5. .B { y.f.o. .f.`.z.~.G.w.f.=.u.C.c.4.c.c.9.x <.=.f.j.8.,.3.-...;.] -.' / S Y S j ` ` ' ..;...Y z M ] j i T Y e X - ",
"* x f.5.A.q.W D 2 { y.5.V f.Z.l.Z.m.Y.Z.B U S.f.a.a.<.[ [ h.X.r.7.p.8.,.3.x.t.j N M ..,.3...i r l v S v j Y ` Y Y v , a e $ , k ",
"[ + ! q.y.5.5.| F g Z g I >.Z.T.f.S.%.h [ =.a.m.*.U P 4 <.y.%.s.z.7.;.p.3.] Y r e r ] ;.-...N N -.S Y -.;.,...k z 7 0 - , i 8 z "
};
