/* XPM */
static char *_455d587872b4acefabbcf7853577a6dfvF38CCWHo3x3zRb[] = {
/* columns rows colors chars-per-pixel */
"64 64 256 2 ",
"   c #040201",
".  c #0A0302",
"X  c #0C0905",
"o  c #0D0C0B",
"O  c #060708",
"+  c #120201",
"@  c #130B04",
"#  c #130D0B",
"$  c #190804",
"%  c #15110D",
"&  c #1A120D",
"*  c #1B1106",
"=  c #110F10",
"-  c #151313",
";  c #1B1513",
":  c #1D1915",
">  c #1A1618",
",  c #1D1B1B",
"<  c #151819",
"1  c #0B1013",
"2  c #230B03",
"3  c #261707",
"4  c #341A04",
"5  c #231A14",
"6  c #231D1B",
"7  c #271B16",
"8  c #321E18",
"9  c #38240A",
"0  c #25211D",
"q  c #2A221D",
"w  c #2C2416",
"e  c #362618",
"r  c #382E13",
"t  c #151B23",
"y  c #0F1922",
"u  c #221F21",
"i  c #281F20",
"p  c #1D2327",
"a  c #242222",
"s  c #2B2423",
"d  c #2D2925",
"f  c #2D2A2B",
"g  c #26282B",
"h  c #322A25",
"j  c #3A2B24",
"k  c #332C2B",
"l  c #392F2C",
"z  c #302728",
"x  c #35312E",
"c  c #3B322D",
"v  c #3B342B",
"b  c #282D35",
"n  c #312E30",
"m  c #353333",
"M  c #3B3433",
"N  c #3C3935",
"B  c #3D3A3A",
"V  c #3E363A",
"C  c #2E3339",
"Z  c #442606",
"A  c #452B18",
"S  c #46361C",
"D  c #553A19",
"F  c #52310D",
"G  c #43342B",
"H  c #483928",
"J  c #583B25",
"K  c #413632",
"L  c #433B35",
"P  c #4A3C34",
"I  c #443D3B",
"U  c #493E3C",
"Y  c #403738",
"T  c #51372D",
"R  c #673C19",
"E  c #3C4331",
"W  c #714719",
"Q  c #594529",
"!  c #4B423C",
"~  c #484138",
"^  c #53443C",
"/  c #584837",
"(  c #544A2E",
")  c #644627",
"_  c #6D562E",
"`  c #79542B",
"'  c #644B34",
"]  c #695438",
"[  c #765738",
"{  c #744D29",
"}  c #78613E",
"|  c #584014",
" . c #483E41",
".. c #4C4543",
"X. c #4D4946",
"o. c #514642",
"O. c #534944",
"+. c #534C4B",
"@. c #594B45",
"#. c #5B5249",
"$. c #5A5453",
"%. c #524E55",
"&. c #675747",
"*. c #765C45",
"=. c #655A56",
"-. c #6B544C",
";. c #78644A",
":. c #6C6258",
">. c #766556",
",. c #716850",
"<. c #675C61",
"1. c #686568",
"2. c #776C69",
"3. c #7C726B",
"4. c #79777A",
"5. c #6E6A75",
"6. c #84582C",
"7. c #906939",
"8. c #A77334",
"9. c #896848",
"0. c #96734B",
"q. c #8A7457",
"w. c #977957",
"e. c #8B6D4E",
"r. c #A57747",
"t. c #AA7E57",
"y. c #887767",
"u. c #8C7D74",
"i. c #A47E67",
"p. c #98825E",
"a. c #A88159",
"s. c #B88A59",
"d. c #B18A51",
"f. c #9B8367",
"g. c #958678",
"h. c #8C8279",
"j. c #A78A69",
"k. c #B28B65",
"l. c #B8946A",
"z. c #BB9974",
"x. c #A98F75",
"c. c #C89A68",
"v. c #C39D76",
"b. c #CEA673",
"n. c #E2B07B",
"m. c #727884",
"M. c #798288",
"N. c #77899C",
"B. c #738EAA",
"V. c #678DB2",
"C. c #6D93B5",
"Z. c #6C96BA",
"A. c #6D9ABD",
"S. c #6593BA",
"D. c #7495B5",
"F. c #7396BA",
"G. c #749ABC",
"H. c #7B9CBB",
"J. c #7997B4",
"K. c #7594AD",
"L. c #7DA1BE",
"P. c #598DB5",
"I. c #6D9BC2",
"U. c #6998C6",
"Y. c #739CC3",
"T. c #7A9EC2",
"R. c #749ECA",
"E. c #6EA3C9",
"W. c #7CA2C5",
"Q. c #7CA4CA",
"!. c #76A4C8",
"~. c #69A5D9",
"^. c #8A8488",
"/. c #968A84",
"(. c #838A97",
"). c #959497",
"_. c #8F8F94",
"`. c #A59489",
"'. c #A59D9B",
"]. c #B09580",
"[. c #A9A199",
"{. c #B1A289",
"}. c #8799AB",
"|. c #999AA6",
" X c #839CB5",
".X c #869DB8",
"XX c #929FB0",
"oX c #A29DA5",
"OX c #84A1BD",
"+X c #8BA4BD",
"@X c #8DA5B9",
"#X c #92A6BD",
"$X c #9BACBC",
"%X c #97A7B6",
"&X c #9CACB6",
"*X c #A6A4A9",
"=X c #A7ADB7",
"-X c #ADB3BA",
";X c #B6B4B8",
":X c #B7AFA9",
">X c #C9A888",
",X c #D4B28B",
"<X c #E7BB85",
"1X c #C5BAB3",
"2X c #E5CAAC",
"3X c #84A4C3",
"4X c #8BA6C1",
"5X c #8DA9C5",
"6X c #82A6CA",
"7X c #85AACD",
"8X c #8CACCA",
"9X c #85ABC6",
"0X c #94ABC3",
"qX c #9BADC3",
"wX c #94AECA",
"eX c #96A9C4",
"rX c #9DB1C5",
"tX c #9CB2CA",
"yX c #94B1CD",
"uX c #88ABD1",
"iX c #99B5D3",
"pX c #8FB2D7",
"aX c #A3ADC6",
"sX c #A3B3C4",
"dX c #ABB5C5",
"fX c #A4B5CA",
"gX c #AAB5CB",
"hX c #A4B9CD",
"jX c #ABBACC",
"kX c #A9B9C5",
"lX c #B2BCC6",
"zX c #B6BCC8",
"xX c #A4BBD3",
"cX c #ABBDD1",
"vX c #A5B9D5",
"bX c #B4BFD1",
"nX c #90B6E5",
"mX c #C1BEC7",
"MX c #B6C1CD",
"NX c #ACC1D7",
"BX c #B9C5D6",
"VX c #BCCCE7",
"CX c #C6C4C8",
"ZX c #D6CBC6",
"AX c #C7CCD7",
"SX c #CCD1D9",
"DX c #DAD6D8",
"FX c #DBD3C9",
"GX c #EBD8CA",
"HX c #F6E3CC",
"JX c #FBEBD7",
"KX c #EDE2D5",
"LX c #C7D4E4",
"PX c #FEF7E9",
"IX c #F3EAE5",
"UX c #E4DEE2",
/* pixels */
". l  .9 A ) i.c.<Xd.c.v.D Z [ 9.q.S Q >.$ ;.w.j.d.r.8.6.` Q S r D ;.&.  5 3 2 9 O ! E X < <     x :   & % %   :   0 d d o   > i ",
"r 1.  Q 4 A ].<Xa.W v.9.;.9.k.,Xw.Z ] e.[ W k.7.9.9.) ;.-./ `.y.] / w x k   N L           m $.p d w . # # < o , q w 5 ~ E X X > ",
"3  .> 3.;.+ [ 7.D D x.$ ) l.t.r.[ _ J _ e.0.7.W q.@.-.@.3 2 8 + / ] % , f g d   E % < -   N 1.b ! O.h q - a - 0 : % % N Y > # . ",
"9 +   S Q G r n.a.) [ * [ i.Z ) *.+ [ A 9.>Xk.0.I 5 q + + H / / ,.,.>.5 . G ! w 0 d :     , m B ~ o.h 0 % %   O X X % h c 6 - . ",
"} X > @ &.>.$ s.<Xs.0.{ j.e.  + ~ G . e u.] q.q.. H e r Q ] ;.' H + J A + e y.]   0 0   O O = V d x 5 0 % o   o a X X ~ +.0 % % ",
"w.e 6   ;.P R c.<Xn.c.R e.*.&.=.>.5 & L . H 7 4 . / ( 3 H >.>.g.g.y./ H 9.J [ ) % 0 x f -   = 1 h x w s : < O - > #   s ..I q   ",
"a.&.2 S S e [ d.6.{ t.b.b.t.w.x.' A :.w 2 L #.T ! =.[.4.M.*XM.&X-X4./.h.T Q ,X;.o X d m = O -   5 h & % X -   X . : .   0 ! ~   ",
"7.A + H ( A >Xb.] ] 0.v.6.r.{ 6.{ J 9.e.3 / /.q.'.oX*X#X#X0XuX6X#X}.-X*Xh.>./ r X % x M : O o < * d &     : o X u z X   # d v : ",
"0.D 4 @ ~ 9 <X8.. y.;.A ) j.F 0.' q.[ ] Q #.1.aXpXuXuXW.T.Y.Y.!.4XD.5X@XM.4.>.2 6 & + X.+.    o 1 p f f ,   < 1 l B     X a m X ",
"7.[ ] 4 q.j.d.c._ ' ].] ' q.w.9.9.9.Z ' [.:X%XqX8XuXW.T.Y.Y.Y.Y.Y.Z.Q.9XK.}.XX5.P . . O.=.  <     1 , a p   , a z n % o X q x X ",
"w.0.R 0.z.7.{ c.j.` ,XZ *.j.4 Z k.w.' =.-XgXtX5X7X6XW.T.Y.G.Y.I.E.E.E.!.E.6XiXeXu.* 8 >.-.. 0 > o , < < a   u N z d a     6 N & ",
"_ [ 6.<Xc.s.s.,Xl.l.9.q.[ Q ;.w.k.9./.|.aX6X7XpX7XW.W.Y.A.Y.I.Y.E.!.E.~.E.I.Y.Q./.5 T y.u.$ 6 a a N f O :   - m K M s     % =.c ",
". _ <Xb.8.b.0.D a.6.4 j.;.9 ] g._ * ^.aXpXnXQ.Q.W.W.W.L.A.E.A.I.A.!.G.Y.Q.E.Z.!.). .N H >.H Y m d ..N   % X o : E +.q o o - 3.$.",
"Q j.l.W ` ` 7.f.,X[ 6.*.[ *.S Q ,.: (.iXuXnXE.G.W.W.L.E.A.E.I.I.D.D.C.F.!.L.A.E.@XB.5.5 w ! Y n 0 m ! ; 0 : # X s X.q < - % $.$.",
"2 q.Q _ ,X0.b.GXz.7.i.*.2 J x._ ).N.tXpXQ.pXY.7XA.L.A.A.A.A.I.I.G.F.F.C.C.A.G.A.S.6XgX1.6 K > O : : ~ g h 5 % % # k f , % : q =.",
". >.( . ;.q.a.j.} } w.[ *.q.Q p.m.NX+XL.!.Q.F.6XA.G.A.A.A.I.S.S.I.U.Y.U.S.I.E.U.~.P.+XM.; l 6 a 0 X x q q % X % . 0 I 5 o 0   1.",
". &.&.+ 0.b.R F p.X   X 2.&.8 [.3X6XuXuXR.R.Y.Q.V.T.Y.Z.Z.S.S.Z.Z.Z.A.Z.A.Z.Z.Z.H.P.~.7X4.Q 0 1 X % # k I 6 = 6 $ 5 ..X @ 7 q N ",
". / i.Z l.b.x.9.&.X   +.&.X =.mXvXtX5X3XT.G.F.I.S.Z.S.V.A.A.S.Z.Z.Z.Z.Z.Z.Z.Z.Z.L.U.~.7X).&.w p ; > > s z > = ; 5 > ~ ..v : w j ",
"> @ [ 8.b.k.F e O -   &.*.. 5..XvXeX+XOX3X3XY.F.U.U.U.S.I.A.V.V.Z.Z.Z.Z.Z.Z.Z.S.B.E.U.Y.oX>.w : 6 - 6 s i 6 ; # & 3 h O.q q x @ ",
"6 2 [ 7.c.v.+ . o - 5 T *.' _.iXiX4XOX6XuXT.I.U.V.U.V.V.I.Z.V.S.F.A.D.A.C.A.Z.Z.F.Y.R.3X=X/./ 3 6 O 6 k i i > = 6 # 0 ! ; L ..s ",
". *.t.Z t.z.-.B ;   S _ F -.=XpXuXW.Q.Q.Q.U.V.S. XH.F.H.T.F.C.H.G.A.D.G.D.D.Z.D.F.F.6X3X}.[.3.@ z . 6 z i 6 # ; h   d X.; e k O.",
"Z j.[ [ >X*.P #./ ' q.q.{ y.SXeXuXQ.W.6XT.F.H.7XbXbXcXvXwX XD.T.H.G.H.G.F.H.G.F.D.V.3XF.N.XXh.. M = 6 6 > > . = @ @ O.~ * 0 # N ",
"6.z.J q.`./ . ~ [ y.,.e S 2.mXvX7X.X4XtXsXsXlXAXUXUXDXAXBXeXJ.3XG.L.H.G.G.G.H.G.T.G.6XH.F.rX).e i > z = 6 n # & @ N #.q q q : w ",
"6.l.x.. w ~ $ S J 3 ..M ; $.bXVX0X0X=XAXSXCXZXUXGXDXZXAXAXgX0X8XL.G.L.L.G.H.D.D.Z.G.F.C.Q.iX(.O.  > M ; z +.> = q v &   L : % w ",
"6.k.[ + g O n :.q.J . G . 2.zXAXvX@X$XlXAXAXcXNXSXzX&XBXVXwX5X+X6XOXL.H.H.H.H.J. XC.I.R.Y..XM...5 d x < g N o % 6 % ; M d X % & ",
"R i.9.* d : o.;.&.&.T ^ @ m.SXmXvXiXsXkXdX$X+X+XfX$X}.cXcX4X5X4X9X3XH.H.H.J.H.D.B.D.Y.C.V.XX|.y.w L :   < 0 - : : 5 s I s   X % ",
"| z.z.9 @ @ &.e.H ^ v O.2.*XMXcXxXBXdXBXsX}..XC.OX.XK.@X0X.X5X+X3XL.H.H.H.D.D.D.D.G.F.C.J.dX;X`.G L : % p , w : ; : 0 M d # ; X ",
"S x.{.A . @ / [ a ~ * 0 =XMXOXiXeXNX=XLXBXJ.6XY.T.T.H.H.H..X5X+X3XL.H.G.H.H.D.H.L.H.V.B.%XSXFX1X&.w k 0 a x x & : ; # 0 d 0 6   ",
"3 / *.8 - s c 4 u X.M X ^.$X8X8X@X0XXXLXVXH.6X!.Y.W.W.F.J.4X5X5X3X3XH.H.H.H.H.J.H. XB.N.-XDXGX,Xh.. c ; o ~ m ; a 5 % 6 0 6 5   ",
"q j P 7 t b s 3 C a ! N 4.XXxX!.5X.X XBXVX+XW.Y.Y.Y.6XF.H.8X5X8X4X3XL.H.H.L.H.H.J.sX=X*X;XGXHXGX`.  ~ ; : O.q % ; : : s 6 ; 0 - ",
"E ~ ( & = t t g n   s o.).$X8X!.6XH..XrXxXyXW.F.H.D.3XJ.OXyX3X8X6XW.OXH.H.L.H.H.XXAXGXZXGXHXHXHXg.3 ^ : B ..@ : # & : k a ; d s ",
"E ~ j @ = p O o < d 5 # ).sXJ.pXY.G.H. X@XtXOXD.4XJ.3XH.3XiXL.5X9XOXH.L.H.H.L.H.&XDXPXJXJXHXGXGX/.H ~ . ..v . e 0 ; : x k 0 s 5 ",
": d L w & , o p : y b 2 -..XnX.XT.3XD.J.0X0XJ.H.H.H.3X5X8X5X+XOX4X5X+X+X+XL.K.@XCXJXPXJXHXHXHXHX`.e ~ q E d M O.6 # ; d d ; 6 M ",
"w B ^ 5 @ : 1 < ; y g A u..X6X4XR.W.D.J.5X3XD.T.H.H.3X6X5X+X5XyX+XOXOX+X+X5X0XrXFXIXPXPXPXJXHXGX`.r ~ 0 w : q c % 5 0 0 6 6 q d ",
"< B O.5 # 5 - < 5 p g S g.#XT.4X!.Q.Y.T.8X3XF.T.3XOX4X4X+X+XwXxX3XL.9X+XOXtXBXNXKXPXPXIXKXFXZXZX`.^ O.h h : 5 6   6 k : ; d d : ",
". x ~ h q a u p w C p 4 >.rXR.+XT.G..X0XtXwX4X3X5X+X.X+X+X5XtXNX7XL.5X+X}.MXSXMXFXIXIXAX;X;X;XZX3.^ #.~ L q 0 ;   6 s ; ; f d % ",
"X q L ~ L d p g 5 b < 3 y.xXW.+X.X}.#XbXAXBXcX$X8X4X.X5X0X0XtXhX8XL.8X@XXXNXSXMXCXDXZX*X*XmXCX1Xv j ^ ^ ! v w % O % > : 0 d 0 # ",
"% d c ^ ~ 6 - , & y < Q /.xXT.eXXX}.=XAXLXSXBX=X5X+XOX5XeX0XeXrX8X@XrX$X&XMXAXMXCXSXdX|.-XSX:Xu.r v O.#.@.c : o & @ % 0 s 6 & % ",
": x d K M : < < ; y p ] g.fXT.eX5X.XwXNXcXjXjX0X+XOX+X#X#X0X0XrXrX$X$XMXNXMXMX-XlXMX$X@XlXmX/./ v ~ ^ #.o.s % - 5 - : d d ; # ; ",
"w L h h M a n a 7 b C ( =.eXuX4X6XT.wXxX+XOX5X3X.X+X+X0X#X@XqXhXNXMX$XNXMXNX&X&X&X$X$X$XjX:Xy.' w v v P G 5 ; 0 6 6 q x s % X ; ",
"0 f x 0 #.x L s < f ..5 <.-XgX4X3X5X@X#XqX5X3XuX4X6X4X4X5X0XeXqXrXhXNXhXkXrX$X$X&XrX+XrXCX:X3.d 5 L ..~   k 0 : ; 6 6 i +.. & s ",
"% q d , +.x N q < m k Y  .(.eX.XyXtXtXqXtX5XOX6X4X3X3X@X5X@X0XeXrXkXhXkXkXsXrXrXkXsX8X$X;X'.O.# 3 L ! ~ X k : 0 6 M k & s . 6 d ",
"% , s 0 ..d m : n N h +.f %.XXeX5XtX0X0X0X5XOX4X4X4X4X4X+X@X0X0XqXqXfXfXsXsXkXfXMXtXtXrXCX'.c & w N N v % s   : 5 c c 6 ; # z k ",
"% : q 0 B 0 a % m s M M m b N.bX#XtX0X#X#X5X3X8X5X5X4X4X+X+X+X#XeXqXqXsXsXsXsXsXMX$XtXkXSX[.e d j L j k ; 5   0 h z z k # $ 6 l ",
"1 : p d x < u X 6 < k 6 E g X.=XrXcXfX5X@X5X5XeX5X8X5X4X+X5X@X#X$XqXrXfXqXsXsXkXMX&XhXNXmXg.5 j G ~ N v k q X q o.M s ; . X 6 M ",
"1 o : g d - , O , f f k N C X 1.%XfXtX@X5X0X0XtXwX5X5X5X@X@X0X0XaXaXfXrXsX$XsXsX-X$XhXNX;X3.e G h v ~ ~ Y k % 0 k M K . + k l s ",
"% o % d u 1 , O s ~ x N m x % m (.#XeX5XwXiXfXhX8X5X5X+X5X0X0X0XqXtXfXaXsX=XrXsX=X&XNXMX[.:.v ~ k e ! ! x d ; > # k o.# k I k 6 ",
"o O 1 g < o <   : f d p N a ~ x (.$XhXyXtXtXrXsX5X5X5X5X5X0XeX0XfXaXfXsXqXsXsXfX-XMXNXMX_./ H ~ L c #.~ d s 6 6 i l o.& I l 6 6 ",
"O < o X o = ,   O = m %.%.I m I =XAXXXyXvXvX&X$X+X#X0X0X0X0XrXtX$XrXsXsXaXdXgXgXaXdXAXDX3.j ^ ~ ! U 6 5 ~ 0   6 : ; l U 5 ; 8 ; ",
"o < o o = > f u < i f n m m n p $.-XgXaX5XvXtXsX#X0X0X0X0X0XqXtXsXdXfXfXsXaXaXaXdXdXmX[.=.P G q Y s k o.+.x m X.k 6 d d ; ; s d ",
"= , < , < = u a > t 6 = t m m t & ^.=XaXqXvXrX@XqXwXrXqX0XqXtXfXgXgXfXgXjXgXgXfXdXmXSX^...U G O.Y & l $.x ; f ~ k 8 > > 5 6 l  .",
"X > : g ,   - > = , - . > n N x + 2.=XAXgXqXtXhX#X$XrX0XrXrXtXhXgXgXgXjXcXjXgXgXdXAX;X=.G P K #.$.l U +.:   , d q 6 > 5 6 s k I ",
"  o = a ,   - , > , , - = > g m v $.1.m.%XdXcXXXrXrXrXrXrXrXsXfXgXgXsXjXgXgXgXdXmXmX4. .^ U K c  . .U l 6 X % q 6 z 6 6 6 i z l ",
"o = o > > O : t = - < , - X > m ....h i 1.|.bX}.rXrXfXfXsXqXqXrXgXaXzXbXbXmXzXmX^.^.@.U @.G P k G U l 6 i 6 # 6 5 s z 6 6 l K k ",
"= < = > > = i , = = - , > # - g a X.<. .Y %.|.=X&X$XsXkXfXsXrXrXaXsXlXzXdX).^./.n  .U G j j v U  . .K z k i > 0 & 6 c d q  .o.i ",
"  o O > t a f u , - - > , - - > < k +.$. .n 1.m.@X%XqXdXjXgXfXdXkXdXzX-X_.<. . .n Y  .j G #.O.$.=.Y j z 6 # ; , 6 l ..M k +.... ",
"0 - o , % O n n , m   - f , O < # n o.Y n ..X.k y.'.'._.-XzX=XaXoX;XmX*X2.o.U U 6 K d P d c o.L Y z > i z z i > & k +.+. .I z X ",
"- 0 p n :   f N t n = = 6 > . O & - V $...n M ..z 2.^._.;X=X^.m.=.^.'.).1.U j z ~ L q O.L L ~ U i 7 i M K i ; 6 i 6 k o.o. .M z ",
"- f f x , O p E 6 , t O = u , < u - s  ... .n 6 #  .$.=.2.5.+.Y ^ =.3.:.o.l z l G ! h l l o.L 5 i > z  .z # # z s # 5 n M i s L ",
", x d 0 , o , B g . i   = 6 g a 6 > i n V ..V > # i z 6 l P P P @.&.-.o.G k Y  .q L q s h O.l @ z i z z i # > l i j l l z 8 M $.",
": d f , < o % N n   a - > = - - . = k  .Y n V ..n V m z l G G T T T o.P K z l K U c q +.+.U 5 z z l z i ; # i k 5  ...d s Y ..+.",
"X p E d % o % x n o a n g - = # ; f ..X.M k n s  .Y  .Y l j j j K K G K l z k l L Y G O.@.I $ z z z z i 6 i z i 6 ..M X 5 M k > ",
"% o g , o ; - a a < = n f a u > z M V k i z i   6 i k K l l K Y  .n i i 6 i z M q P K h k I $ 7 i i i z z z z i k ..z $ s K 6 5 ",
"p   1 X X g , % 6 t   > - , g > s O # s , . = s i i Y  .Y n s i C u t 6 6 6 6 8 d j q q l l + z i > > z M k z k 6 l 5 # z z 6 L "
};
