/* XPM */
static char *result[] = {
/* columns rows colors chars-per-pixel */
"64 64 221 2 ",
"   c #544D0C",
".  c #747038",
"X  c #534F42",
"o  c #726B49",
"O  c #6D6850",
"+  c #7D7657",
"@  c #76736D",
"#  c #B5313D",
"$  c #B23948",
"%  c #B1474C",
"&  c #BB4749",
"*  c #A75856",
"=  c #B65757",
"-  c #BA5453",
";  c #AF615E",
":  c #BE605F",
">  c #9F5A62",
",  c #887668",
"<  c #977A76",
"1  c #A66667",
"2  c #AC6C6B",
"3  c #B56766",
"4  c #B5746D",
"5  c #A97777",
"6  c #A47B7B",
"7  c #B47976",
"8  c #C04044",
"9  c #C34F51",
"0  c #C5645F",
"q  c #C26564",
"w  c #C96765",
"e  c #C57A6E",
"r  c #C57C73",
"t  c #CB7C73",
"y  c #C67E7C",
"u  c #D27570",
"i  c #878803",
"p  c #82881D",
"a  c #8B941C",
"s  c #8A8F34",
"d  c #969848",
"f  c #8C8D57",
"g  c #959555",
"h  c #97975A",
"j  c #95995C",
"k  c #8F8C61",
"l  c #908E6A",
"z  c #959461",
"x  c #96946C",
"c  c #98946F",
"v  c #87847B",
"b  c #96837C",
"n  c #94897A",
"m  c #999372",
"M  c #99957D",
"N  c #A4827B",
"B  c #B4857D",
"V  c #83B57B",
"C  c #C58477",
"Z  c #6B95B3",
"A  c #78A3C2",
"S  c #8E8B84",
"D  c #8B8888",
"F  c #9C8D87",
"G  c #938C8A",
"H  c #959183",
"J  c #9B9785",
"K  c #95928B",
"L  c #969590",
"P  c #999491",
"I  c #9C9A94",
"U  c #969999",
"Y  c #9D9C9B",
"T  c #A98A87",
"R  c #B58A83",
"E  c #BA8884",
"W  c #AB948B",
"Q  c #BC9084",
"!  c #BB968B",
"~  c #B8988D",
"^  c #A99793",
"/  c #A29B95",
"(  c #A39E9C",
")  c #B49B94",
"_  c #BC9B94",
"`  c #B59998",
"'  c #91AD8C",
"]  c #A4A29D",
"[  c #ABA19C",
"{  c #AAAA9A",
"}  c #BAA297",
"|  c #B4A598",
" . c #B2A49D",
".. c #BCA49A",
"X. c #ACB194",
"o. c #9FA3A1",
"O. c #A6A5A3",
"+. c #AAA5A3",
"@. c #A6A9A4",
"#. c #ACAAA6",
"$. c #A7A7AA",
"%. c #ADADAB",
"&. c #B5A7A5",
"*. c #BBA4A0",
"=. c #B2ABA5",
"-. c #BBAAA4",
";. c #B2AEAB",
":. c #BAADAA",
">. c #AABCA2",
",. c #AFB0AE",
"<. c #B0B6A2",
"1. c #B9B2A7",
"2. c #B2B1AD",
"3. c #BCB3AB",
"4. c #A7AAB0",
"5. c #B5B5B3",
"6. c #BBB6B3",
"7. c #B7B8B4",
"8. c #BBBAB5",
"9. c #B1B7B9",
"0. c #BDBCBB",
"q. c #C7938C",
"w. c #C99688",
"e. c #C8948A",
"r. c #CA9A8C",
"t. c #C5A698",
"y. c #CBAA9E",
"u. c #D7A896",
"i. c #C8BC9E",
"p. c #E1B09F",
"a. c #C4ACA5",
"s. c #CEABA0",
"d. c #D0A3A1",
"f. c #D1ACA2",
"g. c #C5B3AC",
"h. c #CAB5A9",
"j. c #DCB7AA",
"k. c #C1B5B1",
"l. c #C3BAB4",
"z. c #C9BCB3",
"x. c #CDBAB5",
"c. c #C3BDBB",
"v. c #D6BCB6",
"b. c #DABDB7",
"n. c #E3BDAC",
"m. c #A1D08E",
"M. c #A6C89B",
"N. c #A3D194",
"B. c #AAC5A3",
"V. c #A9C5A7",
"C. c #AACDA1",
"Z. c #B5C3A9",
"A. c #B4DAA6",
"S. c #B2D5A9",
"D. c #B6D9AA",
"F. c #BEC1BB",
"G. c #C4C198",
"H. c #CDCCAE",
"J. c #D0CFA6",
"K. c #DBD2A3",
"L. c #DAD9AC",
"P. c #C3C5B5",
"I. c #C3C3BE",
"U. c #CCC3BC",
"Y. c #C4CABE",
"T. c #D7C4BB",
"R. c #D7D7B2",
"E. c #E4C4B6",
"W. c #E0E0AF",
"Q. c #E3E2B3",
"!. c #EDEBB3",
"~. c #F4F4B6",
"^. c #F6F7BB",
"/. c #FEFDBB",
"(. c #B9BEC3",
"). c #C0BFC2",
"_. c #B5C5D2",
"`. c #C4C4C3",
"'. c #CAC6C5",
"]. c #C6C9C7",
"[. c #C9CAC6",
"{. c #C8C7CA",
"}. c #CDCDCC",
"|. c #D8C7C1",
" X c #D3C8C4",
".X c #DDCCC3",
"XX c #D2CECB",
"oX c #DACECE",
"OX c #CDD5CF",
"+X c #D0D0C7",
"@X c #D2D1CD",
"#X c #D9D1CF",
"$X c #C8CDD3",
"%X c #D0CFD2",
"&X c #CDD2D4",
"*X c #CFD9D9",
"=X c #D3D3D3",
"-X c #DDD3D2",
";X c #D9D8D7",
":X c #D4D8DA",
">X c #DCDCDC",
",X c #E6CCC5",
"<X c #E6D6CA",
"1X c #E4DBD7",
"2X c #E2DEDC",
"3X c #E2E4C4",
"4X c #FCFCC2",
"5X c #F7E8DC",
"6X c #C9D9E3",
"7X c #DFDFE0",
"8X c #DAE6F0",
"9X c #E4E4E4",
"0X c #E8E7E7",
"qX c #E7E7E8",
"wX c #E6E8E8",
"eX c #ECECEC",
"rX c #E4EDF2",
"tX c #E8F1F4",
"yX c #F3F3F3",
"uX c #F8F7F6",
"iX c #FEFEFE",
/* pixels */
"iXiXiXiXiXiXiXiXiXiXiXiXiXiXiXiXiXiXiXiXiXiXiXiXiXiXiXiXiXiXiXiXiXiXiXiXiXiXiXiXiXiXiXiXiXiXiXiXiXiXiXiXiXiXiXiXiXiXiXiXiXiXiXiX",
"iXiXiXiXiXiXiXiXiXiXiXiXiXiXiXuXuXyXyXyXyXuXuXiXiXiXuXuXyXyXeXyXyXuXiXiXiXiXiXiXiXiXiXiXiXiXiXiXiXiXiXiXiXiXiXiXiXiXiXiXiXiXiXiX",
"iXiXiXiXiXiXiXiXiXiXiXiXiXiXiXuXtXeXeXeXeXeXuXiXiXiXiXyXeXeXeXeXeXyXiXiXiXiXiXiXiXiXiXiXiXiXiXiXiXiXiXiXiXiXiXiXiXiXiXiXiXiXiXiX",
"iXiXiXiXiXiXiXiXiXiXiXiXiXiXiXuXyXeXeXeXeXyXuXuXiXiXuXeXeXeXeXeXyXyXiXiXiXiXiXiXiXiXiXiXiXiXiXiXiXiXiXiXiXiXiXiXiXiXiXiXiXiXiXiX",
"iXiXiXiXiXiXiXiXiXiXiXiXiXiXiXuXuXuXyXyXuXuXuXiXiXiXuXuXyXyXeXyXuXuXiXiXiXiXiXiXiXiXiXiXiXiXiXiXiXiXiXiXiXiXiXiXiXiXuXiXiXiXiXiX",
"iXiXiXiXiXiXiXiXiXiXiXiXiXiXiXiXiXiXuXeXiXiXiXiXiXiXiXiXiXuXeXiXiXiXiXiXiXiXiXiXiXiXiXiXiXiXiXiXiXiXiXiXiXiXiXiXiXiXiXiXiXiXiXiX",
"iXiXiXiXiXiXiXiXiXiXiXiXiXiXiXiXiXiXiXeXiXiXiXuXiXiXiXiXiXyXtXiXiXuXiXiXiXiXiXiXiXiXiXiXiXiXiXiXiXiXiXiXiXiXiXiXiXiXiXiXiXiXiXiX",
"iXiXiXuXyXyXeXeXyXyXuXyXyXuXuXiXiXiXuXqXiXuXyXyXeXyXyXiXiXyXyXiXtXyXeXeXeXeXeXeXtXuXuXiXiXiXiXiXiXiXiXiXiXiXiXiXiXiXiXiXiXiXiXiX",
"iXiXuXyXeXeXqXeXeXeXeXyXyXyXyXiXiXiXiXeXiXuXeXeXeXeXyXiXiXtXuXiXyXeXeXeXeX0XeXeXeXyXuXiXiXiXiXiXiXiXiXiXiXiXiXiXiXiXiXiXiXiXiXiX",
"iXiXiXyXyXeXeXeXeXeXyXeXeXyXyXiXiXiXiXeXuXuXyXeXeXeXtXuXiXeXuXuXeXeXeXeXeX0X0XqXeXeXuXiXiXiXiXiXiXiXiXiXiXiXiXiXiXiXiXuXiXiXiXiX",
"iXiXiXuXyXeXeXeXyXyXyXyXyXyXuXiXiXiXiXeXiXuXyXyXyXyXuXiXiXeXiXiXuXuXuXyXyXyXyXyXyXuXiXiXiXiXiXiXiXiXiXiXiXiXiXiXiXiXiXiXiXiXiXiX",
"iXiXiXiXiXiXiXiXiXeXeXiXiXuXuXuXuXuXiXeXuXiXiXiXeXiXiXiXiXqXiXiXiXiXiXiXtXuXiXiXiXiXiXiXiXiXiXiXiXiXiXiXiXiXiXiXiXiXiXiXiXiXiXiX",
"iXiXiXiXiXiXiXiXiXuXqXiXiXuXyXtXyXyXiXeXuXiXiXiXeXiXiXiXuXeXiXiXiXiXiXiX0XiXuXyXyXyXuXyXyXuXuXiXiXiXiXiXiXiXiXiXiXiXiXiXiXiXiXiX",
"iXiXiXiXiXiXiXiXiXiX0XiXiXuXeXyXtXyXiXyXuXiXiXiXeXiXiXiXyXyXiXiXiXiX9X0XyXiXyXeXeXeXeXeXeXeXyXiXiXiXiXiXiXiXiXiXiXiXiXiXiXiXiXiX",
"iXiXiXiXiXiXiXiXiXiXeXeXiXuXyXyXyXyXiXuXeXiXiXiX0XiXiXiXyXyXiXiXiX0X%.(.iXiXyXeXeXeXqXeXtXyXyXiXiXiXiXiXiXiXiXiXiXiXiXuXiXiXiXiX",
"iXiXiXiXiXiXiXiXuXiXiXqXiXuXyXyXyXuXiXuXeXiXiXiXqXiXiXiXeXuXiXiXiX].7.;.uXiXyXeXeXeXeXeXeXeXyXiXiXiXiXiXiXiXiXiXiXiXiXiXiXiXiXiX",
"iXiXiXiXiXiXuXyXyXuXiXqXuXiXiXuXeXiXiXuXeXiXiXiXqXiXiXiXeXuXiXiX7XF.8.Y 9XiXiXuXiXyXeXiXuXiXiXiXiXiXiXiXiXiXiXiXiXiXiXuXiXiXiXiX",
"iXiXiXiXiXiXuXyXtXuXiXyXeXiXiXuXeXiXiXiXeXiXiXiXqXiXiXiXeXiXiXyX[.I.2.] I.iXiXiXiX0XuXiXiXiXyXyXeXyXyXuXiXiXiXiXiXiXiXiXiXiXiXiX",
"iXiXiXiXiXiXyXyXuXyXiXiXqXiXiXiXqXiXiXiXqXiXiXiXqXiXiXiXeXiXiX=X}.I.#.,.( qXiXiXeXeXiXiXiXiXtXeXqXeXeXyXuXiXiXiXiXiXiXiXiXiXiXiX",
"iXiXiXiXiXiXuXuXeXuXiXiXqXuXiXiXeXuXiXiXeXiXiXiXeXiXiXuXqXiX0X}.}.0.2.2.I 2.iXiX9XiXiXiXiXiXyXeXeXeXeXeXiXiXiXiXiXiXuXiXiXiXiXiX",
"iXiXiXiXiXiXiXiXwXuXiXiXuXeXiXiXeXuXiXiXeXiXiXiXeXiXiXuXuXuX>X>X@X7.5.#.] G eXyXeXiXiXiXiXiXyXyXqXeXtXyXiXiXiXiXiXiXuXiXiXiXiXiX",
"iXiXiXiXiXiXiXiXuX9XiXiXiXwXiXiXuXyXiXiXeXuXiXiXqXeX9X{.*X{.{.%X}.%.5.%.{ v >XqXiXiXiXiXiXiXiXeX0XiXiXiXiXiXiXiXiXiXiXiXiXiXiXiX",
"iXiXiXiXiXiXiXiXiXwXuXiXiXqXuXiXuXqXiXiXyXtXwX}.#.W < 1 5 5 < W +.O.2.,.I #.9XuXiXiXiXiXiXiXyX>XiXiXiXiXiXiXiXiXiXiXuXeXyXiXiXiX",
"iXiXiXuXuXyXyXyXyXuX9XiXiXuXqXiXiXeXiXeX{.9.T * % $ $ & 9 - * = * 1 < #.&.5.{.eXuXiXiXiXiXuX>XiXiXuXiXiXiXiXiXiXiXqX=X}.qXiXiXiX",
"iXiXiXiXyXtXeXeXeXiXeXeXiXiX0XiXiX>X(.k.R.i.# 8 - - - * : : 3 w 3 w q T y.T 6 ^ 8.:XqXiXiX2XuXiX;X%.}.iXiXiXiXiX=X`.=XXXeXiXiXiX",
"iXiXiXiXyXeXyXeXyXiXiX9XiXiXyX9X%X2.R./.^.4 $ - * = ; 1 3 3 3 3 4 4 t 7 ) Q e e !  .5.6.8.0XiXwX}.8.S eXiXiXuX0.2.{.=X=XuXiXiXiX",
"iXiXiXiXuXuXeXuXyXiXiXeXyXiX=X@.Q.R.Q./.K.$ ; 2 1 7 2 5 7 7 7 B B y 7 C b Q e t e.y. X;.. j X.].%X5.I.uXiXuX2.@.0.[.=X:XiXiXiXiX",
"iXiXiXiXiXiXwX0XiXiXiXiX=X0.H.W.~.:XY./.C > 6 T 6 W _ T _ T ~ N W R R B < Q r r e.y.z.XXM a a s j M P.+X@XO.I 2.7.[.}.>XiXiXiXiX",
"iXiXiXiXiXiXiXqX2XiXiX0X;.L./.W.&X8X].L.R I.I.+Xc.{.0.7.[.F.c.7.I.Y.8.=./ R e r r.*.l.0X{ s g d d s i p i x O.2.7.].}.>XiXiXiXiX",
"iXiXiXiXiXiXiXiXeX9XqXP.^.X.G.OX$X X&X) ) [.;.5.5.`.P.8.[.[.I.I.[.[.[.F.0.R e C r.} T.0X8.s h g g g h j h g J 2.0.[.=X7XiXiXiXiX",
"iXiXiXiXiXiXiXiXiXeXY R.K.X @ ].&Xc.O.< ! =X=X=X{.@X`.0.c.2.( &.=.l.l.U.[.W e C e.y.T.2XI.f x z z h j z z h c #.6.`.}.>XiXiXiXiX",
"iXiXiXiXiXiXiXiXiX7XJ.~.Q.J G.3X*X9.$.D / -XoX-X#X#X'.#X#XXXc.U.l.=. . .( F e t r.f.|.2X3.k m c c c x m m x l ] 7.`.[.>XiXiXiXiX",
"iXiXiXiXiXiXiXiXiXyXH.!.4X^.4X~.3.&.@.%.D #.B.Z.Z.<.@.1.g.3.a.x.v.b.v.v.g./ 4 t e.f..X2X=.n M M H H H H H M n ] 6.I.=X>XiXiXiXiX",
"iXiXiXiXiXiXiXiXiXuXeX6 C j.K.R.t.` +.@.L ' Z.M.C.M.C.C.C.B.>.M.>.|  .t.d.*.b r r.y..X;X+.G K G K K K K K J H ] 0.].}.>XiXiXiXiX",
"iXiXiXiXiXiXiXiXiX{.2.&.3 - - q w E &.K Y G <X<X[.Z.M.A.D.A.A.D.D.A.S.Z.^ _ 3.N r.y.,X}.( I I I Y I ] / I K P #.8.].XX>XiXiXiXiX",
"iXiXiXiXiXiXiXiXiXyXF P T _ y u t C &.L U D h.<X5X2XF.M.N.N.m.N.N.m.m.N.V.*.h.;.Q s..Xc.( ] O.O.] ] I ] ( L Y @.7.].%X>XiXiXiXiX",
"iXiXiXiXiXiXiXiXiXiX0X`.x.E ` q.y t.:.( U b y.h.E.<X5X1X' ' V V V >.Z.I.U.`.k.'.Q s.|.8.@.#.@.O.H >X9X%.4.o.O.%.7.{.=X>XiXiXiXiX",
"iXiXiXiXiXiXiXiXiXiXiXqX`.^ E ` -.&.( $.D 6 u.f.X.1.3.<X1Xg.k.P.U.,X,XE.E.n.:.U.) f.'.;.8.2.%.;.L 0.iXtX(.K @.;.0.{.}.>XiXiXiXiX",
"iXiXiXiXiXiXiXiXiXiXiXiXyX5.].k.O.$.$.U , 3 w.u.g.[ [ h.T.P.E.n.n.p.u.u.w.u. .;.( y.6.0.5.5.0.5.] L iXrX8X`.K 5.0.`.=X>XiXiXiXiX",
"iXiXiXiXiXiXiXiXiXiXiXiXyXeX>XI.O.Y D < w 0 4 r.f.v.| | &.} ! ~ Q w.e.g.].'.XX+.XXD O.7.`.@X).5.L 6.iX6XtXiX}.@.0.[.=X=XuXiXiXiX",
"iXiXiXiXiXiXiXiXiXiXiXiX0XiXiXqX`.Y / ! 3 3 E C r...y.~ ~ r.| ( W W 1.3.3.l.k.G c.O.=XyX}.}.c.%.U yXiX_.tXiXiX=X%.}.=X;XuXiXiXiX",
"iXiXiXiXiXiXiXiXiXiXiXeXeXiXiXiXiX7X=X,.P *.v.} Q *.y.u.t.t.} R ! } z.@X;X=X8.O.{.yXiXiX&X[.].Y &XiXyXA 6XiXiXiX>X`.;X;XuXiXiXiX",
"iXiXiXiXiXiXiXiXiXiXiX9XiXiXiXiXeXyXiX{.%.5.=.:.8.<XoXU.h.a.i.T.XX'.=X].(.`.>X0XuXiXiXiX>X'.0.%.iXiXuXZ $X=.>XiXiX>X].=XiXiXiXiX",
"iXiXiXiXiXiXiXiXiXiXqXeXiXiXiXiXqXuXiX>X0.5.`.].;.5.8.F.>.5.7.(.0.%.%.5.8.uXiXuXeXiXiXiXqX9.%.>XiXiXiX9X}.  P.iXiXiXeXuXiXiXiXiX",
"iXiXiXiXiXiXiXiXiXuX0XiXiXiXiXuXqXiXiX9X9.0.7.yXqXeX9X>X{.`.XX=X0XqX%X].] %.uXiX0XiXiXiXiX5.0.iXiXiXiXiX5.  ( iXiXiXiXiXiXiXiXiX",
"iXiXiXiXiXiXuXuXuXeXtXiXiXiXiXqXuXiXiXqX7.0.K >XuXiXiXiXuXuXiXiXiXuXqX8.5.S &XiXwXyXiXiXiX}.;XiXiXiXiXiXS + , yXiXuXiXiXiXiXiXiX",
"iXiXiXiXiXiXyXeXeXeXeXyXiXiXiX0XiXiXiXqX0.0./ >XyXiXiXiXyXeXiXiXiXyXyX:X@./ 3.iXuXwXiXiXiXuXiXiXiXiXiX>XO . { iXiXiXiXiXiXiXiXiX",
"iXiXiXiXiXiXyXeXeXqXeXyXiXiXqXyXiXiXiXeX=X;.+.qXtXiXiXiXuXyXiXiXiXuXyXuX5.#.] uXiX0XiXiXiXiXuXuXtXeXeX7.o o %XiXiXiXiXiXiXiXiXiX",
"iXiXiXiXiXiXyXeXeXqXeXyXiXiXqXiXiXiXuXeXwX%.@.eXyXiXiXiXuXtXiXiXiXuXeXiX>X] I 9XiXeXyXiXiXiXuXtXeX9X>X;XO , eXiXiXiXuXiXiXiXiXiX",
"iXiXiXiXiXiXuXyXyXuXyXuXiXyXqXiXiXiXuXyXiX2.] eXeXiXiXiXuXeXiXiXiXiXqXiXiX=Xv =XiXuXqXiXiXiXuXeXeX0X>XyX@.=.iXiXiXiXiXiXiXiXiXiX",
"iXiXiXiXiXiXiXiXiXiXiXiXiXqXuXiXiXiXyXuXiX;X@.iXeXiXiXiXuXeXiXiXiXiXeXiXiXiX0XyXiXiXqXiXiXiXuXuXyXyXeXyXiXiXiXiXiXiXiXiXiXiXiXiX",
"iXiXiXiXiXiXiXiXiXiXiXiXuXqXiXiXiXiXqXuXiXiXuXiXeXiXuXeXeXeXeXtXyXiXqXiXiXiXiXiXiXiXeXyXuXiXiXiXiXiXiXiXiXiXiXiXiXiXiXiXiXiXiXiX",
"iXiXiXiXiXiXiXiXiXiXiXiXeXuXiXiXiXiXwXiXiXiXiXiXqXiXyXeXeXqXqXeXyXiXeXuXiXiXiXiXuXyXeXyXeXiXiXiXiXiXiXiXiXiXiXiXiXiXuXiXiXiXiXiX",
"iXiXiXiXiXiXiXiXiXiXiXiXqXiXiXiXiXuXeXiXiXiXiXiXeXiXuXeXeXqXeXeXyXiXeXuXiXiXiXiXiXyXeXeXtXiXiXiXiXiXiXiXiXiXiXiXiXiXiXiXiXiXiXiX",
"iXiXiXiXiXiXiXuXuXuXuXeXeXuXuXuXiXuXyXiXiXiXiXiXeXiXuXuXuXuXuXuXuXiXyXuXiXiXiXiXiXiXiXuXuXiXiXiXiXiXiXiXiXiXiXiXiXiXiXiXiXiXiXiX",
"iXiXiXiXiXiXuXyXeXqXqX0X0XeXeXtXuXeXuXiXiXiXiXiXeXiXiXiXiXiXiXiXiXiXyXyXiXiXiXiXiXiXiXiXiXiXiXiXiXiXiXiXiXiXiXiXiXiXiXiXiXiXiXiX",
"iXiXiXiXiXiXuXyXtXeXeXqXeXeXeXyXuXeXuXiXiXiXiXiXeXuXiXiXiXiXiXiXiXiXuXyXiXiXiXiXiXiXiXiXiXiXiXiXiXiXiXiXiXiXiXiXiXiXiXiXiXiXiXiX",
"iXiXiXiXiXiXuXyXyXeXeXeXeXeXeXyXuXeXiXiXiXiXiXiXyXuXiXiXiXiXiXiXiXiXuXeXiXiXiXiXiXiXiXiXiXiXiXiXiXiXiXiXiXiXiXiXiXiXuXiXiXiXiXiX",
"iXiXiXiXiXiXiXiXiXiXiXuXiXiXiXiXuXeXiXiXiXiXiXyXyXtXyXuXiXiXiXiXuXeXeXeXeXyXuXiXiXiXiXiXiXiXiXiXiXiXiXiXiXiXiXiXiXiXiXiXiXiXiXiX",
"iXiXiXiXiXiXiXiXiXiXiXiXiXiXiXiXyXyXiXiXiXiXuXuXeXyXuXiXiXiXiXiXuXeXeXqXeXeXuXiXiXiXiXiXiXiXiXiXiXiXiXiXiXiXiXiXiXiXiXiXiXiXiXiX",
"iXiXiXuXiXiXiXiXiXiXiXiXiXiXuXuXeXuXiXiXiXiXiXyXyXeXyXiXiXiXiXiXuXyXyXeXeXyXuXiXiXiXiXiXiXiXiXiXiXiXiXiXiXiXiXiXiXiXuXiXiXiXiXiX",
"iXiXiXiXiXiXiXiXiXiXiXiXiXiXyXeXtXeXyXiXiXiXiXiXiXiXiXiXiXiXiXiXiXiXiXiXiXiXiXiXiXiXiXiXiXiXiXiXiXiXiXiXiXiXiXiXiXiXiXiXiXiXiXiX",
"iXiXiXiXiXiXiXiXiXiXiXiXiXiXyXeXeXeXuXiXiXiXiXiXiXiXiXiXiXiXiXiXiXiXiXiXiXiXiXiXiXiXiXiXiXiXiXiXiXiXiXiXiXiXiXiXiXiXiXiXiXiXiXiX",
"iXiXiXiXiXiXiXiXiXiXiXiXiXiXuXuXyXuXuXiXiXiXiXiXiXiXiXiXiXiXiXiXiXiXiXiXiXiXiXiXiXiXiXiXiXiXiXiXiXiXiXiXiXiXiXiXiXiXiXiXiXiXiXiX"
};
