/* XPM */
static char *_f6bdc66dfcb4e72ac744f10222b466d2wcFXrpIGRfwP0ne[] = {
/* columns rows colors chars-per-pixel */
"64 64 256 2 ",
"   c #020404",
".  c #170809",
"X  c #051707",
"o  c #060417",
"O  c #190416",
"+  c #061718",
"@  c #1A1919",
"#  c #1B1F0E",
"$  c #280407",
"%  c #390606",
"&  c #2A1608",
"*  c #351909",
"=  c #2A0917",
"-  c #3B0818",
";  c #271718",
":  c #391818",
">  c #01251C",
",  c #08261A",
"<  c #17261B",
"1  c #0A2E11",
"2  c #2A2408",
"3  c #37260A",
"4  c #27251A",
"5  c #37271A",
"6  c #353412",
"7  c #040427",
"8  c #061927",
"9  c #1A1926",
"0  c #031937",
"q  c #171938",
"w  c #100433",
"e  c #270627",
"r  c #380625",
"t  c #281A27",
"y  c #371A27",
"u  c #281B37",
"i  c #391A35",
"p  c #330235",
"a  c #062729",
"s  c #172727",
"d  c #083328",
"f  c #1A342B",
"g  c #052737",
"h  c #172838",
"j  c #043634",
"k  c #183836",
"l  c #242325",
"z  c #29282A",
"x  c #3B2423",
"c  c #3C252B",
"v  c #362727",
"b  c #283529",
"n  c #37352B",
"m  c #292737",
"M  c #342B33",
"N  c #3C2B33",
"B  c #382738",
"V  c #283638",
"C  c #383637",
"Z  c #490607",
"A  c #5C0401",
"S  c #570808",
"D  c #471605",
"F  c #581705",
"G  c #480816",
"H  c #590717",
"J  c #471717",
"K  c #571819",
"L  c #630202",
"P  c #630A01",
"I  c #6C020B",
"U  c #6C0704",
"Y  c #740104",
"T  c #7C0303",
"R  c #74010A",
"E  c #780A0A",
"W  c #691707",
"Q  c #781608",
"!  c #670817",
"~  c #770616",
"^  c #681718",
"/  c #7C1413",
"(  c #771819",
")  c #582509",
"_  c #48251A",
"`  c #53241C",
"'  c #582619",
"]  c #483219",
"[  c #512E0D",
"{  c #6A2708",
"}  c #782707",
"|  c #682718",
" . c #77251B",
".. c #67331A",
"X. c #783516",
"o. c #713808",
"O. c #470926",
"+. c #580927",
"@. c #4B1B2A",
"#. c #471826",
"$. c #541C2B",
"%. c #591927",
"&. c #471A36",
"*. c #561836",
"=. c #520A35",
"-. c #670826",
";. c #760827",
":. c #621B2B",
">. c #681928",
",. c #7B1C23",
"<. c #781828",
"1. c #671935",
"2. c #771937",
"3. c #6F0935",
"4. c #472728",
"5. c #57262A",
"6. c #473528",
"7. c #563628",
"8. c #472736",
"9. c #572634",
"0. c #463538",
"q. c #593736",
"w. c #682526",
"e. c #772529",
"r. c #643627",
"t. c #773426",
"y. c #682736",
"u. c #772737",
"i. c #673838",
"p. c #763636",
"a. c #334436",
"s. c #08452C",
"d. c #784406",
"f. c #72460C",
"g. c #494138",
"h. c #534135",
"j. c #70462A",
"k. c #594D1B",
"l. c #0E1B45",
"z. c #331845",
"x. c #182745",
"c. c #043245",
"v. c #183847",
"b. c #0C2F52",
"n. c #252A46",
"m. c #3B2847",
"M. c #283647",
"N. c #3A3746",
"B. c #353653",
"V. c #3E2658",
"C. c #373469",
"Z. c #4C1B47",
"A. c #482A45",
"S. c #572B45",
"D. c #463747",
"F. c #59384A",
"G. c #463754",
"H. c #4E2F53",
"J. c #662844",
"K. c #6D3049",
"L. c #62224B",
"P. c #2A4343",
"I. c #384448",
"U. c #324D55",
"Y. c #294D5D",
"T. c #484447",
"R. c #4E4850",
"E. c #66464B",
"W. c #4F4365",
"Q. c #840202",
"!. c #890706",
"~. c #990607",
"^. c #871707",
"/. c #971706",
"(. c #870917",
"). c #980516",
"_. c #861718",
"`. c #971A17",
"'. c #A20502",
"]. c #A71905",
"[. c #B41606",
"{. c #A50715",
"}. c #A51B1B",
"|. c #B30E13",
" X c #8A2905",
".X c #972805",
"XX c #873605",
"oX c #9A3904",
"OX c #872718",
"+X c #982818",
"@X c #8A3615",
"#X c #983717",
"$X c #A72707",
"%X c #B52906",
"&X c #A63505",
"*X c #B63804",
"=X c #A42616",
"-X c #BA2C18",
";X c #A73716",
":X c #B63916",
">X c #870827",
",X c #970A27",
"<X c #881928",
"1X c #941928",
"2X c #841A34",
"3X c #8F1333",
"4X c #A61926",
"5X c #AF102F",
"6X c #882726",
"7X c #97282A",
"8X c #843528",
"9X c #95352A",
"0X c #862835",
"qX c #943135",
"wX c #AC312C",
"eX c #C53B17",
"rX c #C9300D",
"tX c #C3362A",
"yX c #D62C1C",
"uX c #974606",
"iX c #964716",
"pX c #995617",
"aX c #8F530B",
"sX c #A94504",
"dX c #B94A06",
"fX c #A85402",
"gX c #B75607",
"hX c #A94919",
"jX c #B64617",
"kX c #A75816",
"lX c #B85918",
"zX c #90610C",
"xX c #B96805",
"cX c #B76915",
"vX c #B0710F",
"bX c #91492D",
"nX c #B64625",
"mX c #AE532B",
"MX c #AE6926",
"NX c #91682F",
"BX c #C95917",
"VX c #CD4F10",
"CX c #C66903",
"ZX c #C87605",
"AX c #C96717",
"SX c #D37511",
"DX c #E16B0A",
"FX c #CE5423",
"GX c #D95916",
"HX c #8D2C46",
"JX c #941F46",
"KX c #AA8818",
"LX c #CE8906",
"PX c #EA9103",
"IX c #D7AA06",
"UX c #E09724",
/* pixels */
"D <Xt B.5.7X{. X:Xd.x - #XjXhXiX,X&X+Xe b w._.: w.%XR 7 4.k.mX.Xx n.b { Q.s b <.6 M.#.&Xo.7 D.|  XW ~ e z | 5 ; / 6.`.* Z.<.>.4.",
"^.= a.R.y.~ /.=X! G u 0.^ @XMXXXR ^.`.%.s #.( J e cXMXqX5XiXwX&XG B 8.I.JXZ m ,.<.S.7.#XW + g e.>XB | E 4 & v.S.E c.e.F , C ( & ",
"sXM q.^ v - _.-.*XaX5 B.S.= o 7 ( ).=XF 9 N e.!.j j.ZXzXy m - !.( I S.8.@.J B .X;XBXcX/ nXQ *.wXD h V 2.3X( u.7X|.h F..X_.0X=X4X",
"gXE A.4.n 4.y ! hXkX4 w x v v 0.4.>XsXo.q C ^ !.u z.~.S O _ ; / W >.l V 6 *.0XT G w.e.S w.KXxXT 4.$.v M 1X[._.E .XOX6XwX`.`.'.}.",
".X~.g I.V 3 E.|.oXhX6.@ N C * 0.D.R kXf.7 ; F 7Xn k  X( h z y !.y R.P j N.6XS N.5.! %.4.%.#Xd.8 V 8._ < ; '.2 ) &X.XH ^ D ,.[.^.",
"U $X8 : h q.J.X.Q Y 8.H.8.C 4.B 8.Y kXMX7 5 W S 5 l.t.@Xv S 7X/.5.9.`.( M +X+ Y.q.D O 4.7X- + M.g.u t < 9.wX, H Q.<.G e.@.J.}.^.",
"& wXD : HX:.; k r. X0.n.6.D.&.i 8.E +X*Xo v ( Z h | /.L 4.2.1.y.^ %.z FX@X~ M n 8.3.#...).,Xw.p.6.J.K.t.|.`.8 n.9.,X/ G m 4 _ w.",
"0 j.VX~ T l b &.9.I v N.D.f ] h G ^.R rX0.v >.6X<X<X( * c %.X P.y.D 7 NXoXw < 8.C u.( W nXxXcX.X+X=X!.( 7.`.G _ 9 XXoXZ F.5.; y ",
"t % 5.i.#.s 0.x.y.+X$ N.0.: N k <.!.).dXhX7 ' $.:.6 ! #.z <.%.8 y.: h h.$X Xc V z ] 4.R AXaXo 4.w. X9 @ m y.I F i 8.nXOX: / %.8 ",
"y : m p.e.< 6.0.u.VXQ 0 H.g.G.a D ~./.!.;XOXH < M.$.!.W ' ^ ' e.P M d 7Xu.+X} J.6X' 1.R BXaXo 0 _.eX^ - t H ^ 4 _ m | ~ j `.~.<.",
"& ; g q.2XM 4.x 7 FXkXH i  .^.=X4X'. X(.7X$XG b y >.OX7X}.H 4 t.{ i &.e.D p.3Xw.-X^ w.^.gXZX6.N 6.OX X, n ^ K 8.' @.<X/ *.0XY w.",
"zX~.>Xr.D N C * O X.DXGX[.6X0Xp.2XR R Z 8 E ).O K ( x j N ! G n.i.; 9.(.Q n t C Q ! 8.`.$XfX..D.0.8XrXi c | G 8.f t #X.X8 V 3 ; ",
"cXQ.5.r.R c i ; e.:XhXjX X, 0 b b u.(.; m B r.S l $.m c.N.6X/ S.;.G 6.U 4 M N z 8X@X&.].-XwX X8.8 B oX4.w.A 9.y.$.9.$X[.H &.y.t ",
"P O *.r >.: a #.e.K X $ : r V 5 6.<.T y x s *.Q : ` %.| 6XJ , c e./ H S b n.S._ } bX_ X._./.!./ 9.B iX5.4.* z _ ).4X~ { _.n y i ",
"* &.N : (.Q ).7.: M.x Z 1.l $.H.e./ * _ K x u.~.tX|.{.| <X;.z B t yXrX  f E.2.Z ( i.d I.0.{ ;.K Q 2 mXL O 9.:.) Q ^.+ %._.-.# J ",
"4.V S u.^. X6X3XE : f y.:.N.n S (.E 7 a.P.1.4Xs @Xo.5.v.8.Q.3 x.q.L kXjXG y.D a .X Xl.A.>.u.F 8 V +.MXZX;XA b.F.^ E j q.Q <.4.}.",
"5.w.( !._ / @ :.O.9.t 8.| i m.V D ;.9 8.C qXZ g 0 u ! n.b /.^ u S t J.:X;X~.s 7.`. Xx m.#.5 r.F 0.p LXPXt.e 6.V ..'.b.M ^.,X) ,.",
"; 4._ K 6.e.#.4.F @.J J : : 6.D.7.T * c.JXFXsX8 F.6 { K b (.H N A N 1 y.,. .~ 1._.I ^ 7.4X; u 9.X bXIXo.7 K.7.;._.e.$.z 6XA J 5.",
"- J.#.$.:.5.! b | K ! J v c b H.5 ].- ' ~.`.*X^ 9 M ,.^ = qX*XeX X8 5 JX$ 4 w.- c 9X&XE 7X^.+ H.).nXLXD 8.x.P.^ 4.D #.8 pXf.7 5.",
"1 8.%.%.4.4.~ x $.' 1XG z 4.4 5.w mXdXQ.z y.{.^.5.w.! M.>X:XaXt.].8 W H s &.$ z 8. XXX5.d wX) / yXOXIXf.A.h.w.:.v : 9.>XdXvXO . ",
"^ C 6.( #.8.J 9.*.: _.% g Y.U.M.J.ZXfXo i n %.Y ~.Z 5 c.).'.9 g 0XI .X) 0 e.4.C 0.F @.m.8 8.:XjXdX>XLXpX0 5.J.F 2.w./ %./ xXzX$ ",
"^.3X4X~ > N J #.4.@ @X#X+.>.bX3XFXLXI 9 K M K +X^.o R.C K !.A.D.B 2.@X*X4.%.z V i !.L.j 9 u *XhX@ Y &XvX  G.c J :.^.E + &.;XZXhX",
"S 9.e.W > 0.6.&._ 8 { DXGXDXPXDX^.eXP : t K.% .XsXo s 6.0.E 4.D.y m ; *X@XO.O.C B Q.3Xj.o.8X#X. 9 K 3.CXiXo N.e.; W 2X:.%.).-XBX",
"H V ] ).O.c ] i G v.x rXDXSXSXgXH H V - @ 4.4.+.iX#XO l.` T : b V J i 9XXX9 ` Y.i.;XoXDXLXkX).A._ 9.*./.bXoX^ J I.;.& y.J ' bX~.",
"Z R.N u.&.z J *.$ z b.7.~.].eX~ 7 4.C _ - &.>.G i +X^.w u.sXY 9 N.B < ^ ).Z $ F.-X( ).~.,.OXD M.0.G V :.g K.rX .o ` 0.R., G ;.].",
"Z k u S { K 0XAX%XT %._ ( 3X .*X4.4.= 8._ 4 7.4.J a _.~.o pXxX- 0.; N 2.].xXMXR ) ( 1.( (.^.G c.t.! @ [ ' + X.vXO.= l.H.E.OXOX&.",
"4 F.>.D #.( #X+XVXnX,.H <XR H rX{ < V N G @ = ^ 8.: , <X$.6.AX:X).$XsXnXmXhXXX4X>X( 9.5./ '.<Xh y.R m 4.Z B F.pXxXj.MXLXkXBXzX$ ",
"O =.aXlX=.>.@X>XrXVXoX7XgXgX:XgX{ 8 9.n 9.C 8.' t &.1 ( +XB 8X*X~ 7X~.Q.).^.S ~ _._.E 5.1X[.#X4 y ( @ M.J.#.8.1.LXPXIXCXU mXlX- ",
"bXZ X mXBXsXQ ( 7XdXUXjXoXAXtXdXqXl.H.g.N.+ A.2XW 5.z.J Y 7.9.E   m K.%.! E ' #.#.^ ^.' 9.^ hX] * ,.n V 7.y n.' oX9XH p 8.uXdXbX",
"ZX( 7 (.ZXXXZ 6.%.:XVX.XR ;.! %XsX  :  .-X.X+XW `.$Xz h -.K 6X( e 5 3 z B 5.@.B i 8.P : 0 + -XX.m A s B.1 G 0 P ^ 3.@ h.D.l.H dX",
"$XS 2 ~.! 4.C q F ;XQ.A >.1.: t.uX$ V.V q.`.^.> &. XoXt.o.W 9X: t : ` &.i | OXy l *.Q 8.&.o OX^.#.mX .x.T.6.m ! =X%.d n & 0.V 1.",
"I =.4 Q.- %.5 0 9.e.q.D.N q.F &.dX) s a.m >.%X5.t w.AXgXMXVXG * V 9.$.: v J ~ w.^ _ ( C x O X.#X{.xXZX) x.V s 8XcXU A.z z r a 9.",
"J -.; (.;X6XJ 8XOX3.f C B.K.^ +.:X.X> C.+ ) dX..8 qXY o i.lX| w ^ ( E G f y.L 4.*.I H M G.n...dXXX7 7X.X+ G.2.uXvXp p.W  .t m ^ ",
"z nX-XFX;XR ! uXdXF + U.R.OX( %.6X4XK ,.8X~ wXuX-.E / c q pXaXb &.J =X$Xy *.d N.j 7.sXF v w.R &.g m ^ ;XW A.G 6X}.- y H.^ ( ^ ' ",
"D  .`.) A 2X1X_.P 5 +.4.] +.4.D 5.wX~.-X-X$ 0.`.!.( F 4.z.#X.X, 6.+ 1X].F ; K.5.t.0X$XA g u.T m.C G.( LX[ h.AXT 8.W I v.d 9.:.J ",
"%X= B  .* w.+.0XQ.g J./ l &.N M 4 * (.$X$XW . c b.1.W >.@.! GX[ 8 5.,.2.%XZ 2._.Q =.OX Xs %.Q.y f 6X>XAXvX/.gXxX7 U.Q {.e.E %.&.",
"].U w. .| %.   X%Xz U.5.i i < @.K P.S.`.fX$X_.( b.7.H J ' 3.dX#X7 6X`.X.tXQ.o 6 V h | zX... ) e H.W o 2XvXY ~ CXaXo R.7.4.wXQ l ",
"_.!.A 5.q.y.* e.^.t c.9.7.| 6.e.#.F.:.H OX$XY _.D ] <.&.h 8.w.=XwX].=XOX<.`.~ m R.x H vXNX7 n D.y.- 1 3X!.G M %.VXoX&.&.x.y.o.: ",
"Y =.M ! 8 :. .S.W % 7 5.+X.X_ F.G e.D j u.|.-.8.~ H.t.J b._ +.lXcXL 5 8 9 v +XG a c O.vXxX. n.F.H 5 & ! ^ 9.#.h :.#X8.' s G W @.",
"A s T.w.E 4 S 8X&XmXVX} #.K.S 8.^ + I.B 7X..@.2 6.O.y.{ z x `.e.Q <.l J G.J 5.~.9 b o bXxXD s 0.Z 8.U.i.E b w.: | U + 5 m.5.+.c ",
").^   0X|. XOXOX].j.mX X+ <.[ B ~ x.D.[ I d 2.t Y.#.%._ +.m _.^ ( Y $.g b v &.0X;.d e 5 MX=Xr ~ = B.V e.y.T.m #.iXiX7 y C z ! >.",
"* _.oX XOX4.>.~ 5 y % K m.1.` N.Z C HX}.(.v 0.i.t.,.a a wX+X{.K `.F J y.p._ V h.( < v.G LXIXsXKXf.+ b ^ z < 2 ; | { < x e ' dX;X",
"= $.<.Z t 8.#.4 D.*.' : B ` A 9.F 7.>.' `.(.! 6X'.,XqXmXSXsXA ^ *X{ s S.e.Y 5 y ( I 6XjXmXUXIXUXLXrXwXP k H.m.c.-.- d F.( $X&X5.",
"y 0.1.` > ] Z N.C 1.W 3 t J 6X@.<X( J < 1X|.G ' S.r &XjX' I <.%.jX6Xv.Z.s w.>X&.o.FX_.[ - ~ sX|.Y ~.lXuXO b.i.wX;Xe.r u.@X!.Z s ",
"X s J m m +.% A.V v H N m @ @.a e.^ 4 B <X(.l 4.: ( ~ -.i _ !.i Q (.5 5 a S.G k K OXW g q.A $.K *.;.$XLXpXbX/.Q.dXLXxX].%.fX} + ",
"Q l = q v.<X^.j I.C >.M h t . + ^ G m M ' J M $.i.Q ! ^ S 8.6XQ ^ )./.^.1X<XX N.k 4.} k J.E M 5 M 6.).dXgXbXK a >X^.bX.Xp MXnX7 ",
";X;X_.oX4XrXf.l.0.i.% 4.%.t.OX| / y *._ _.J k m @.@.$...} -.y _.+X4 n ' _.!.$ g E.eXU 1.<.x m G.u 4.;.%XF g 9.r 9.Y H A o k.ZX) ",
"~ p.jXrX!..XsX5.h G : K.(.+X%XlXQ a J.^.`.H P.S.: 2XQ >.C OXF ( Q.t H.i m 4./ ! $XlX;X{.W K V M u.W a 0X} s.:.5.0.(._ ) y Z.X.7.",
"L g b.1.!.`./.) a y.1X_.3 M o H +Xr 5 8.9.^.+ N.E./ W = s 3X(.` ^.H ( & 9.M ! =X~ 8 e._.%.; m ] W A.+ <.I , 4.N N.( >.x = ..iXG ",
"@.. 8.U.e.,XlXkX; <XH > k B >.#. .W J 8...Y ! a ,.~ b M 4.| F %.! v 1.>XM 0.+X~.7 6 #.! 4.n.V y.* m g t.o.a _ G.M 4.J ; 7 p.ZXMX",
"V 0.z C J =.#XfXnXt.+ V m F.G ] 4.OX2XE K y.nXiXH <X%.t N.$.H e.~.{ w.U f N Q.Q 8 ; q.^ $ n 4 y.% M + kXvXo i : m h u.#X9X_.pXVX",
"% N.R.x ` &.bXVXU n R.C y p.4.V 0.7Xu./ H 3XgXuX% e.! @ v.8.x 4 ( $ B J k M.;X5.m m p.mX{ a C #.#.t > ,.LXxX;X(.Q h.0XwXHX .A ).",
"J.H C S.:.& H `. .V N.M.A.J ' = y.S V 5. X[.(.S /.^ % #.b z *.  bXNX+._.Z 8 p.^ m C Z uX@X  b.B c 5.9.JXvXAX].).wX*XQ 7 s 7.v 2X",
"8.6.w.G - r.m ..o.x.C.7.: x.A.1.^.; C i  ./._.! |.!.S 4.%.x 9.~ $XDX=X|.dX| 3.' 3 Z.^ (.gXCXt.O.( 7.4 6X{ q J ,.G o.cX& R.8.8.8.",
"C a.8.K e.* u KXCXQ.mXVXfX ._.4X.X7.4.V 8.)./.{ _.w.^ 5 x m 9.`.#.} 1X%.@X^.).& l 1.qX].} bXdX&X!.@ V <.Q B._ <.r iXLX7.p r.r.<.",
":._.; N.<X^.%.lXCX*XFXf.+.8XXXQ.ZXhX  G.0.`.(.~ W &.8.#.% 5 e.P g i.'.y >Xd.} 8 a.H r w.~ l p.$X&XS.p.#X{ n.5.Q ~ / xXpX7 4.Q $.",
": : !.8 >..XdXkX).OX$XZ &.1.F 7. .fX_.;.<X9.J _.Y + N 9.+ 9.<.& N q.A 5.! wXuXg y.w.y t +X^ 8 ;.`.!._./.F 5.P v ~ >XkXkXp qXuX .",
": #.j.8XK 7.6X;Xd.0 ,.W 1.^ X V.=./.&XZ k f c J.^.w.$.! 4.8.H C 5 8.( t _ 9XOXG ( a I._ K J g.w.6XT y 0X! A.-.%.W Q.dXAX).5X#X .",
"m 5.OX=XJ c q 6XsX$ 6.( y @ 0.z e.~ L n N.5 v 2XQ ).X.3 2.5XG M %.J =.l _ bXAXP %.N.m.5.e.0X+.D G hXo.T ! C * ( >.OX|./ W  X|.v ",
"#.7.W D z.z h q.3.i 7XZ O i.A.4.P D.2.5.F.; G OX).e.iX_ @ ' Z M 8.V @X* @ =XAX&Xl.a.l W.t._.>.4.Z.8X%X/.! 9 ] ( l.' <X= #.e.~ H ",
"= m ,.$.@.f V x iX0XfXzX  n 6.G.2.f q.Z   G.5.F J Y U <X;.H ..3.5 wXGX.Xi *.}.xX) a G.L D A.H #XkX:.;.| Y + 2XA k ,.| m.*.+XaXF ",
"g D.P 3._ J 4 m d.^.AXUXS 7 Y.D.! X W.y.. B.9.A j V J 6X2.>.W S OXtX^.!.F #.8XSXZXkXeX!.8 V ( e.3 4.+.* =X5 L./ e 5 3 5.i <XFXxX",
"1.7X3 J y w.% C S +.vXLXZXo.@.#XXXq.K.I 4.a.2X~ #.M.t.^ l b 4.).! . #.G | %X$..XfXo.@XwX$ k p.>.i M.y.e.}.Z - <X&X= A.F _ u $ 9X",
"[.`.}.{ M.W.h } #XZ...ZXSXZX&X+.#X|.gXMXZ  .F v.y.-.y ] 5.m.7.W i g.6.= m.#Xw.P.&.l.4./.4X^ 4X+XT M.n _.`.@X@XMX..!.5X#.5.: i.8."
};
